{"title":"Galaxy Quest(1999)MP-4[DaScubaDude]","uid":12400710,"size":1249724645,"categoryP":"video","categoryS":"movies","magnet":"?xt=urn:btih:c85908067d4ce406bbb2231055610eb8373ec988&amp;dn=Galaxy+Quest%281999%29MP-4%5BDaScubaDude%5D&amp;tr=udp%3A%2F%2Ftracker.openbittorrent.com%3A80&amp;tr=udp%3A%2F%2Fopen.demonii.com%3A1337&amp;tr=udp%3A%2F%2Ftracker.coppersurfer.tk%3A6969&amp;tr=udp%3A%2F%2Fexodus.desync.com%3A6969","seeders":0,"leechers":1,"uploader":"dascuba","files":1,"time":1442018165,"description":"Galaxy Quest (1999)\nPG  |  102 min  |  Adventure, Comedy, Sci-Fi  |  25 December 1999 (USA)\n7.3 Your rating:   -/10   Ratings: 7.3/10 from 114,373 users   Metascore: 70/100 \nReviews: 596 user | 209 critic | 28 from Metacritic.com\nThe alumni cast of a space opera television series have to play their roles as the real thing when an alien race needs their help.\n\nDirector: Dean Parisot\nWriters: David Howard (story), David Howard (screenplay), 1 more credit Â»\nStars: Tim Allen, Sigourney Weaver, Alan Rickman \n\nGeneral\nComplete name                            :Galaxy QuestGALAXY_QUEST_SE_Title1.mp4\nFormat                                   : MPEG-4\nFormat profile                           : Base Media\nCodec ID                                 : isom\nFile size                                : 1.16 GiB\nDuration                                 : 1h 42mn\nOverall bit rate mode                    : Constant\nOverall bit rate                         : 1 633 Kbps\nMovie name                               : GALAXY_QUEST_SE\nGenre                                    : Comedy\nWriting application                      : Lavf54.6.100\n\nVideo\nID                                       : 1\nFormat                                   : MPEG-4 Visual\nFormat settings, BVOP                    : No\nFormat settings, QPel                    : No\nFormat settings, GMC                     : No warppoints\nFormat settings, Matrix                  : Default (H.263)\nCodec ID                                 : 20\nDuration                                 : 1h 42mn\nBit rate mode                            : Constant\nBit rate                                 : 1 499 Kbps\nWidth                                    : 720 pixels\nHeight                                   : 404 pixels\nDisplay aspect ratio                     : 16:9\nFrame rate mode                          : Constant\nFrame rate                               : 29.970 fps\nColor space                              : YUV\nChroma subsampling                       : 4:2:0\nBit depth                                : 8 bits\nScan type                                : Progressive\nCompression mode                         : Lossy\nBits/(Pixel*Frame)                       : 0.172\nStream size                              : 1.07 GiB (92%)\nWriting library                          : Lavc54.23.100\n\nAudio\nID                                       : 2\nFormat                                   : MPEG Audio\nFormat version                           : Version 1\nFormat profile                           : Layer 3\nCodec ID                                 : 6B\nDuration                                 : 1h 42mn\nBit rate mode                            : Constant\nBit rate                                 : 128 Kbps\nChannel(s)                               : 2 channels\nSampling rate                            : 44.1 KHz\nCompression mode                         : Lossy\nStream size                              : 93.4 MiB (8%)\nWriting library                          : LAME3.99.5","torrent":{"xt":"urn:btih:c85908067d4ce406bbb2231055610eb8373ec988","amp;dn":"Galaxy+Quest%281999%29MP-4%5BDaScubaDude%5D","amp;tr":["udp%3A%2F%2Ftracker.openbittorrent.com%3A80","udp%3A%2F%2Fopen.demonii.com%3A1337","udp%3A%2F%2Ftracker.coppersurfer.tk%3A6969","udp%3A%2F%2Fexodus.desync.com%3A6969"],"infoHash":"c85908067d4ce406bbb2231055610eb8373ec988","infoHashBuffer":{"type":"Buffer","data":[200,89,8,6,125,76,228,6,187,178,35,16,85,97,14,184,55,62,201,136]},"announce":[],"urlList":[]}}